<svg xmlns="http://www.w3.org/2000/svg" viewBox="0 0 288 272.5"><g opacity=".3" fill="#FFF"><path d="M154.6 272.5H16.2c-8.9 0-16.2-7.3-16.2-16.2V139.1c0-8.9 7.3-16.2 16.2-16.2h123.2v2H16.2c-7.8 0-14.2 6.4-14.2 14.2v117.2c0 7.8 6.4 14.2 14.2 14.2h138.4v2z"/><path d="M16.6 223.9h-2.4c-1.7 0-3.2-1.4-3.2-3.2v-46.1c0-1.7 1.4-3.2 3.2-3.2h2.4c1.7 0 3.2 1.4 3.2 3.2v46.1c-.1 1.8-1.5 3.2-3.2 3.2zm-2.4-50.3c-.6 0-1.2.5-1.2 1.2v46.1c0 .6.5 1.2 1.2 1.2h2.4c.6 0 1.2-.5 1.2-1.2v-46.1c0-.6-.5-1.2-1.2-1.2h-2.4z"/></g><g fill="#FFF"><path d="M277.2 272.5h-128c-6 0-10.8-4.9-10.8-10.8V10.8c0-6 4.9-10.8 10.8-10.8h128c6 0 10.8 4.9 10.8 10.8v250.9c0 6-4.8 10.8-10.8 10.8zM149.2 2c-4.9 0-8.8 4-8.8 8.8v250.9c0 4.9 4 8.8 8.8 8.8h128c4.9 0 8.8-4 8.8-8.8V10.8c0-4.9-4-8.8-8.8-8.8h-128z"/><path d="M227 259.9h-27.6c-2.9 0-5.2-2.4-5.2-5.2V250c0-2.9 2.4-5.2 5.2-5.2H227c2.9 0 5.2 2.4 5.2 5.2v4.6c0 3-2.3 5.3-5.2 5.3zm-27.6-13.1c-1.8 0-3.2 1.5-3.2 3.2v4.6c0 1.8 1.5 3.2 3.2 3.2H227c1.8 0 3.2-1.5 3.2-3.2V250c0-1.8-1.5-3.2-3.2-3.2h-27.6zm36.8-227.1h-46.1c-1.7 0-3.2-1.4-3.2-3.2v-2.4c0-1.7 1.4-3.2 3.2-3.2h46.1c1.7 0 3.2 1.4 3.2 3.2v2.4c0 1.8-1.4 3.2-3.2 3.2zm-46-6.6c-.6 0-1.2.5-1.2 1.2v2.4c0 .6.5 1.2 1.2 1.2h46.1c.6 0 1.2-.5 1.2-1.2v-2.4c0-.6-.5-1.2-1.2-1.2h-46.1z"/></g><path fill="#FFF" d="M50.8 84.8h-2c0-24.4 19.8-44.2 44.2-44.2v2c-23.2 0-42.2 18.9-42.2 42.2z"/><path fill="#FFF" d="M87.6 49.3l-1.4-1.5 6.3-6.2-6.3-6.3 1.4-1.4 7.7 7.7z"/></svg>