<svg xmlns="http://www.w3.org/2000/svg" viewBox="0 0 813.65 220.36"><path d="M297.81 66.32c-9.52-16.12-31.88-28.94-54.5-28.94-50.66 0-91.72 40.92-91.72 91.39s41.06 91.39 91.72 91.39c21.87 0 44.37-13.1 54.5-28.59v28.59h36.55V37.38h-36.55zM243 183.6a54.83 54.83 0 1 1 54.83-54.83A54.83 54.83 0 0 1 243 183.6zM559.44 37.38c-23.07.17-45.19 12.74-54.36 33.49-9.17-20.15-31.56-33.49-54.83-33.49a50.81 50.81 0 0 0-45.7 29.7v-29.7H368v182.78h36.55v-109c0-20 15.77-36.79 35.76-37.22a36.57 36.57 0 0 1 37.35 36.55v109.67h36.56v-109c0-20 15.77-36.79 35.75-37.22a36.57 36.57 0 0 1 37.36 36.55v109.67h36.56V102.22c0-35.44-29-65.09-64.45-64.84zM52.84.93l.09 36.56h40.35v98.29a47.85 47.85 0 0 1-68.42 43.37L0 207.15a84.47 84.47 0 0 0 129.83-71V.93zM789.71 83.86L763 110.53a41.75 41.75 0 1 1-70.61 30.16h-37.7a79.48 79.48 0 1 0 135-56.83zM656.12 1.02h69.16v37.73h-69.16z"/><path d="M697.666 88.631L786.295.002l26.68 26.68-88.63 88.628z"/></svg>