<svg version="1" xmlns="http://www.w3.org/2000/svg" width="666.667" height="666.667" viewBox="0 0 500.000000 500.000000"><path d="M233.9 52.4c-.2.2-3.5.6-7.4.9-10.3.9-13.8 1.5-26.4 4.3-63.2 14.2-108.9 55-125 111.9-6 21.5-7.9 51.5-3.9 64.3 9.4 30.7 42.9 44.9 72.3 30.7 16.9-8.1 24.9-22.4 27-47.9.9-12.1 4.4-20.7 12.4-30.6 12.1-15 30.9-26.2 50.1-29.7 8.5-1.5 27.8-.7 36.5 1.6 9 2.4 20.2 7.4 27.2 12.2 11.1 7.6 23.6 22.2 27.9 32.5.9 2.2 2.2 5.2 2.9 6.9 2.6 6 4.6 16.8 4.9 26.4.4 12.2-2.1 25.1-7 35.6-1.3 3-2.4 5.6-2.4 5.9 0 .5-5.4 8.7-7.2 11.1-11.4 14.7-27.1 25.2-44.3 29.5-10.6 2.7-12.7 2.9-36 2.9l-20 .1.2 47.2c.1 26 .2 47.6.2 47.9.1.4 11 .9 24.4 1.2 25.1.4 28 .8 40.9 5.7 11.3 4.2 25.9 15.5 35.1 27 4 5.1 11.3 20.5 13.3 28 1.8 7.2 2.3 10.4 2.7 17l.3 4.5 50.8.3 50.9.2-.6-11.3c-.5-9.4-1.8-20-4.1-33.2-1.3-7.3-7.5-29.4-9.6-34-.5-1.1-2.1-4.9-3.6-8.5-5.4-13.2-16.4-31.9-23.9-40.4-1.4-1.6-2.5-3.1-2.5-3.3 0-.3 2-3 4.4-6.1 24.5-32 38.4-74.9 39.1-120.7.4-25.1-1.8-41.4-8.5-62.3-3.3-10.4-4.3-12.7-10.6-25.7-12.1-24.9-27.7-44.2-51.3-63.8-5.2-4.2-20.6-14.1-29.2-18.6-15.8-8.2-33.2-14-53.4-17.8-7-1.3-45.5-2.9-46.6-1.9z"/></svg>