<svg xmlns="http://www.w3.org/2000/svg" width="200" height="120" viewBox="-100 0 200 120"><g fill-rule="evenodd"><rect x="-100" width="200" height="120" rx="22.25" ry="22.25" fill="#f0ca00"/><rect x="-95.75" y="4.25" width="191.5" height="111.5" rx="18" ry="18"/><rect x="-88.75" y="11.25" width="177.5" height="97.5" rx="11" ry="11" fill="#f0ca00"/><path d="M-71.494 84.072v-9.096l22.534-48.207h10.76l-22.767 48.207h17.547V55.582h9.65v19.394h5.4v9.096h-5.4v9.974h-9.65v-9.974h-28.074zM9.54 74.699V46.116q0-4.848-2.59-7.572-2.59-2.725-6.88-2.725-4.295 0-6.881 2.725-2.586 2.724-2.586 7.572v28.583q0 4.894 2.586 7.573Q-4.225 84.95.07 84.996q4.25 0 6.83-2.678 2.59-2.678 2.64-7.619zm-28.587.554V45.562q0-9.281 5.818-14.314Q-7.411 26.215.07 26.169q7.43 0 13.25 5.033t5.87 14.36v29.691q0 9.281-5.82 14.314Q7.55 94.6.07 94.6q-7.481 0-13.299-5.033t-5.818-14.314zm47.553 8.819v-9.096L51.04 26.769H61.8L39.033 74.976H56.58V55.582h9.65v19.394h5.4v9.096h-5.4v9.974h-9.65v-9.974H28.506z"/></g></svg>